<svg width="184" height="176" viewBox="0 0 184 176" fill="none" xmlns="http://www.w3.org/2000/svg">
<path d="M166.534 100.106L178.2 104.803L178.76 103.456L172.531 95.4097L182.719 93.9246L183.279 92.577L171.62 87.8628L170.964 89.4404L179.409 92.8549L170.653 94.1705L170.339 94.9265L175.691 101.946L167.19 98.5281L166.534 100.106Z" fill="white"/>
<path d="M160.285 121.497C157.694 124.286 157.79 128.178 160.524 130.65C163.258 133.122 167.196 132.877 169.787 130.088C172.401 127.273 172.292 123.368 169.572 120.908C166.851 118.449 162.899 118.682 160.285 121.497ZM161.466 122.565C163.375 120.509 166.299 120.358 168.356 122.218C170.413 124.078 170.515 126.964 168.605 129.02C166.721 131.049 163.797 131.2 161.74 129.341C159.683 127.481 159.581 124.594 161.466 122.565Z" fill="white"/>
<path d="M147.077 155.282L142.722 147.068L153.776 151.825L155.084 151.15L149.244 140.134L147.649 140.957L152.004 149.172L140.95 144.415L139.642 145.09L145.482 156.105L147.077 155.282Z" fill="white"/>
<path d="M124.019 155.243L122.276 155.612L124.591 166.257L120.368 167.151L120.696 168.662L130.886 166.504L130.558 164.993L126.334 165.888L124.019 155.243Z" fill="white"/>
<path d="M97.865 168.214C96.8228 168.57 96.0088 169.419 95.8405 170.758C95.5903 172.75 97.0474 174.145 99.9234 174.496L105.533 175.182L107.082 162.845L101.116 162.115C97.9542 161.729 96.1759 162.746 95.9102 164.861C95.7043 166.5 96.5025 167.654 97.865 168.214ZM100.264 173.089C98.4415 172.866 97.4895 172.069 97.6534 170.765C97.8172 169.461 98.9374 168.918 100.759 169.141L104.421 169.588L103.926 173.536L100.264 173.089ZM101.008 163.552L105.117 164.054L104.601 168.161L100.492 167.658C98.5094 167.416 97.5173 166.65 97.6967 165.223C97.876 163.795 99.0253 163.309 101.008 163.552Z" fill="white"/>
<path d="M81.6043 162.314L73.6385 159.058L73.0393 160.486L79.342 163.062L75.1198 173.12L76.7828 173.799L81.6043 162.314Z" fill="white"/>
<path d="M54.2994 151.826L52.8561 150.622L49.093 163.762L50.4539 164.897L62.9459 159.038L61.53 157.857L58.4379 159.347L53.3243 155.082L54.2994 151.826ZM57.0272 160.031L50.9656 162.952L52.8758 156.568L57.0272 160.031Z" fill="white"/>
<path d="M24.9755 144.543L33.1349 139.946L28.7244 151.02L29.4563 152.285L40.398 146.12L39.5054 144.578L31.346 149.175L35.7566 138.101L35.0246 136.836L24.0829 143.001L24.9755 144.543Z" fill="white"/>
<path d="M22.9125 119.246C22.5081 117.352 21.4901 115.857 19.9845 115.009L19.116 116.369C20.3203 117.099 21.0407 118.147 21.3263 119.485C21.9124 122.231 20.3384 124.681 17.6083 125.249C14.8782 125.816 12.4363 124.2 11.8502 121.454C11.5645 120.116 11.7777 118.874 12.5813 117.727L11.2306 116.828C10.1998 118.203 9.89676 119.972 10.2974 121.849C11.0875 125.551 14.3332 127.744 17.9793 126.986C21.6253 126.229 23.6989 122.93 22.9125 119.246Z" fill="white"/>
<path d="M16.0906 80.3135L4.08589 76.5375L3.63557 77.9243L10.4877 85.4612L0.450327 87.7339L0 89.1208L11.9992 92.9137L12.5265 91.2901L3.83557 88.5429L12.4588 86.5505L12.7114 85.7725L6.81562 79.1906L15.5634 81.9372L16.0906 80.3135Z" fill="white"/>
<path d="M20.5093 58.6227C22.8652 55.6383 22.4543 51.7657 19.5289 49.5176C16.6036 47.2695 12.6975 47.8245 10.3415 50.8089C7.96348 53.8213 8.3886 57.7048 11.2998 59.942C14.2109 62.1791 18.1312 61.6351 20.5093 58.6227ZM19.2454 57.6514C17.5089 59.8512 14.6069 60.2324 12.4058 58.5408C10.2047 56.8493 9.86887 53.9799 11.6054 51.7801C13.3198 49.6084 16.2217 49.2272 18.4228 50.9187C20.624 52.6103 20.9598 55.4796 19.2454 57.6514Z" fill="white"/>
<path d="M33.3391 38.9905L34.7647 37.9356L28.1443 29.2262L31.6004 26.6688L30.6608 25.4327L22.3231 31.6024L23.2627 32.8385L26.7187 30.2811L33.3391 38.9905Z" fill="white"/>
<path d="M50.4224 23.2069C54.095 22.121 56.0339 18.7296 54.9695 15.2251C53.9051 11.7205 50.3954 9.94015 46.7228 11.026C43.0157 12.1221 41.0819 15.5305 42.1411 19.018C43.2004 22.5056 46.7152 24.303 50.4224 23.2069ZM49.9625 21.6928C47.2554 22.4932 44.6663 21.1451 43.8654 18.5082C43.0645 15.8713 44.4756 13.3405 47.1826 12.5401C49.8552 11.7499 52.4444 13.098 53.2453 15.7349C54.0462 18.3718 52.6351 20.9026 49.9625 21.6928Z" fill="white"/>
<path d="M80.1382 13.8479L77.2324 9.61827C79.0082 9.03039 80.0431 7.66457 80.0806 5.74687C80.1334 3.04789 78.1858 1.37659 74.9104 1.31421L69.9973 1.22065L69.7541 13.6502L71.5538 13.6845L71.6278 9.90233L74.7412 9.96162C75.0112 9.96676 75.2815 9.95415 75.5338 9.94119L78.1766 13.8106L80.1382 13.8479ZM74.7168 8.45129L71.6573 8.39303L71.7667 2.79973L74.8262 2.858C77.1297 2.90187 78.3157 3.93695 78.281 5.7126C78.2462 7.48825 77.0203 8.49516 74.7168 8.45129Z" fill="white"/>
<path d="M99.351 12.569C101.205 13.2012 103.028 13.1085 104.54 12.271L103.805 10.8365C102.551 11.4802 101.269 11.5506 99.9592 11.104C97.2711 10.1877 95.9507 7.59554 96.8618 4.99369C97.7729 2.39183 100.433 1.15676 103.122 2.07309C104.432 2.51966 105.402 3.33887 105.985 4.60886L107.461 3.9283C106.796 2.34853 105.414 1.18228 103.577 0.555925C99.9529 -0.679383 96.3772 0.938994 95.1604 4.41373C93.9437 7.88846 95.7442 11.3395 99.351 12.569Z" fill="white"/>
<path d="M132.679 10.896L131.231 9.8721L124.07 12.8728L124.66 5.22856L123.095 4.12196L122.383 13.5807L119.825 17.1036L121.274 18.1274L123.811 14.6335L132.679 10.896Z" fill="white"/>
<path d="M140.383 29.5549C141.56 31.1035 143.122 32.0341 144.85 32.1762L145.055 30.5814C143.651 30.4216 142.55 29.7715 141.718 28.6775C140.012 26.4327 140.39 23.5556 142.622 21.904C144.854 20.2523 147.759 20.6999 149.465 22.9447C150.297 24.0387 150.635 25.2535 150.398 26.6281L152.007 26.8803C152.353 25.2038 151.87 23.474 150.704 21.9395C148.403 18.9132 144.523 18.2774 141.542 20.4832C138.561 22.6889 138.093 26.5428 140.383 29.5549Z" fill="white"/>
<path d="M153.521 42.2918L156.671 50.2108L158.129 49.6464L155.637 43.3806L165.908 39.4036L165.25 37.7504L153.521 42.2918Z" fill="white"/>
<path d="M165.493 61.4785L169.547 61.1384L170.082 67.3496L171.607 67.2217L171.071 61.0104L174.927 60.6868L175.528 67.659L177.089 67.5281L176.335 58.7863L163.781 59.8399L164.556 68.8294L166.116 68.6984L165.493 61.4785Z" fill="white"/>
</svg>
