<svg width="289" height="32" viewBox="0 0 289 32" fill="none" xmlns="http://www.w3.org/2000/svg">
<path d="M0 0.269874C1.14268 0.265564 2.28611 0.263419 3.42878 0.271321C8.13511 5.73634 12.8422 11.2014 17.5515 16.665C22.2676 11.3415 26.9694 6.00791 31.6885 0.687294C32.7922 0.690167 33.8952 0.687292 34.9989 0.690166C35.0004 10.7437 35.0004 20.7973 34.9989 30.8502C32.0182 30.853 29.0382 30.853 26.0598 30.8502C26.0583 27.3924 26.0598 23.9339 26.0583 20.4769C23.2192 23.4009 20.3913 26.3335 17.5538 29.2596C14.7919 26.2659 12.0382 23.2637 9.27629 20.2707C9.27479 23.7608 9.27779 27.2502 9.27479 30.7417C6.18395 30.7424 3.09234 30.746 0.00149777 30.7395C-8.23273e-07 20.5825 0 10.4269 0 0.269874Z" fill="white"/>
<path d="M52.2583 0.372517C55.3285 -0.00914016 58.5116 0.643834 61.1774 2.18874C64.5499 4.1174 67.0649 7.36887 68.221 11.0196C69.5014 15.0182 69.1999 19.4954 67.3429 23.2733C65.7538 26.5438 62.9887 29.2765 59.5898 30.7062C56.5889 31.9861 53.1321 32.1913 49.9997 31.2713C46.7816 30.3456 43.9572 28.2616 42.0344 25.5738C39.7723 22.4447 38.7363 18.5121 39.0571 14.6934C39.3565 10.8298 41.0806 7.07015 43.9165 4.36692C46.165 2.20279 49.1273 0.744334 52.2583 0.372517ZM52.4097 8.32055C50.7921 8.68323 49.3252 9.60679 48.2713 10.8614C46.9195 12.4506 46.2521 14.5655 46.39 16.6298C46.5208 18.936 47.6869 21.1816 49.571 22.5754C51.1487 23.7724 53.2329 24.3024 55.2042 23.9832C57.2619 23.6733 59.1296 22.4454 60.29 20.7536C61.5118 19.0062 61.9776 16.7845 61.614 14.6991C61.236 12.4309 59.8363 10.33 57.8157 9.15907C56.2116 8.2102 54.2332 7.90656 52.4097 8.32055Z" fill="white"/>
<path d="M73.0008 0.268906C74.0658 0.264566 75.13 0.268908 76.195 0.266014C81.3428 4.70051 86.4787 9.14874 91.625 13.5847C91.628 9.17912 91.6235 4.77501 91.6265 0.370172C94.4177 0.374512 97.2111 0.350639 100 0.382469C99.9925 10.5008 99.9985 20.6206 99.997 30.7382C99.0786 30.7447 98.1616 30.7396 97.2425 30.7411C91.8785 26.1308 86.525 21.5082 81.1589 16.8972C81.1589 21.5473 81.1566 26.1988 81.1604 30.8489C78.4395 30.8546 75.7209 30.8517 73 30.8503C73.0007 20.6575 73.0008 10.4632 73.0008 0.268906Z" fill="white"/>
<path d="M104.002 0.266363C112 0.266363 120 0.264958 128 0.267787C127.999 2.6317 128.002 4.99418 127.997 7.35809C125.427 7.36092 122.857 7.35668 120.288 7.35951C120.286 14.8608 120.288 22.3621 120.286 29.8633C117.465 29.8661 114.644 29.8661 111.823 29.8647C111.818 22.396 111.824 14.928 111.82 7.45924C109.213 7.45641 106.608 7.45923 104.002 7.45781C103.999 5.06066 103.999 2.66281 104.002 0.266363Z" fill="white"/>
<path d="M132.001 0.269261C137.343 0.267819 142.687 0.261329 148.029 0.272144C150.395 0.435809 152.817 1.52306 154.089 3.51012C155.296 5.3984 155.388 7.74738 154.995 9.87648C154.618 11.9717 153.291 14.0517 151.142 14.8174C153.344 15.4562 155.09 17.2623 155.668 19.3914C156.175 21.2595 156.092 23.2747 155.482 25.1111C154.823 27.0887 153.266 28.7319 151.341 29.6511C149.919 30.339 148.35 30.768 146.757 30.8502C141.838 30.853 136.92 30.853 132.001 30.8502C132 20.6568 132 10.4627 132.001 0.269261ZM140.718 5.70553C140.723 7.76541 140.736 9.82602 140.737 11.8859C142.22 11.9068 143.703 11.9335 145.187 11.9508C146.205 11.963 147.266 11.4396 147.666 10.5059C148.078 9.53762 148.068 8.4035 147.672 7.43232C147.257 6.42726 146.151 5.82666 145.057 5.79565C143.612 5.75744 142.165 5.73365 140.718 5.70553ZM140.495 17.7959C140.493 19.8817 140.493 21.9675 140.495 24.0534C141.959 24.0505 143.423 24.0534 144.886 24.0267C146.121 23.8522 147.355 23.0836 147.738 21.8962C148.074 20.8363 147.905 19.5536 147.053 18.7555C146.27 18.0309 145.146 17.749 144.084 17.731C142.888 17.749 141.692 17.7685 140.495 17.7959Z" fill="white"/>
<path d="M160.053 0.269968C162.819 0.263525 165.585 0.2664 168.35 0.268548C168.352 8.02951 168.349 15.7905 168.352 23.5528C170.568 23.5686 172.786 23.5271 175 23.5736C174.975 25.9995 174.999 28.4233 174.989 30.8507C169.992 30.8542 164.996 30.8507 160 30.8521C160.006 20.6573 160.044 10.464 160.053 0.269968Z" fill="white"/>
<path d="M192.407 0.26837C193.817 0.264086 195.226 0.266954 196.636 0.266954C201.096 10.4533 205.545 20.6439 210 30.8309C206.751 30.823 203.503 30.8145 200.253 30.813C198.36 26.4456 196.482 22.0718 194.591 17.7044C192.495 22.0818 190.39 26.4535 188.292 30.8288C185.194 30.8395 182.097 30.8452 179 30.8523C183.467 20.6553 187.939 10.4625 192.407 0.26837Z" fill="white"/>
<path d="M214 0.26848C215.026 0.264862 216.053 0.266294 217.079 0.266294C222.033 4.70451 226.982 9.14852 231.936 13.5882C231.941 9.18253 231.935 4.77544 231.94 0.367617C234.625 0.36617 237.312 0.366158 239.998 0.369052C240.001 10.496 240 20.6229 240 30.7491C239.117 30.7527 238.235 30.7491 237.353 30.7506C232.184 26.1372 227.027 21.5123 221.858 16.899C221.858 21.5485 221.858 26.1995 221.858 30.849C219.239 30.8555 216.62 30.8504 214.001 30.8504C214 20.6569 214 10.4627 214 0.26848Z" fill="white"/>
<path d="M258.144 0.469031C261.609 0.075353 265.124 0.297713 268.567 0.764113C268.309 2.96326 268.051 5.16171 267.785 7.35945C266.131 7.0336 264.441 6.85668 262.749 6.85528C260.604 6.8413 258.51 7.53706 256.704 8.57405C254.846 9.65859 253.332 11.341 252.841 13.3492C252.246 15.7868 252.774 18.5069 254.482 20.4767C256.098 22.3255 258.483 23.5324 260.976 24.0268C263.6 24.4065 266.276 24.2072 268.903 23.9443C268.934 26.084 269.088 28.2286 268.929 30.3648C265.679 30.8235 262.367 31.0067 259.09 30.7032C257.079 30.476 255.03 30.0774 253.279 29.0971C250.803 27.944 248.597 26.277 246.929 24.2282C245.159 22.0542 244.119 19.381 244.015 16.6595C243.911 13.8065 244.326 10.8641 245.74 8.29365C246.663 6.59587 248.058 5.14422 249.683 3.99256C250.866 3.14646 252.171 2.46398 253.458 1.76683C254.886 1.00115 256.524 0.668318 258.144 0.469031Z" fill="white"/>
<path d="M279.916 0.332592C281.629 0.120322 283.414 0.411639 284.918 1.26404C287.007 2.40665 288.522 4.51607 288.9 6.84551C289.096 8.15838 289.015 9.52708 288.557 10.7803C287.916 12.5884 286.58 14.1423 284.88 15.0655C283.328 15.9223 281.48 16.2329 279.726 15.9516C277.911 15.6697 276.212 14.741 275.001 13.3784C273.764 12.0052 273.04 10.1915 273.003 8.35462C272.951 6.61998 273.505 4.87649 274.551 3.48181C275.812 1.77646 277.79 0.600693 279.916 0.332592ZM280.613 1.33811C279.892 1.49565 279.378 2.10592 279.09 2.74494C278.876 3.23195 278.469 3.63548 277.967 3.82675C277.232 4.12138 276.423 3.82343 275.673 4.01967C275.015 4.20762 274.538 4.89529 274.644 5.57025C274.796 6.47958 275.537 7.19488 275.565 8.13793C275.622 8.66695 275.274 9.10199 275.054 9.55085C274.786 10.076 274.576 10.6874 274.748 11.2755C275.007 11.9356 275.753 12.3341 276.456 12.2661C277.193 12.2302 278.018 12.2164 278.612 12.7227C279.15 13.259 279.39 14.0207 279.951 14.5403C280.49 15.0323 281.389 15.0798 281.973 14.6365C282.701 14.087 282.874 13.0638 283.661 12.5735C284.409 12.1606 285.296 12.4054 286.102 12.2717C286.766 12.186 287.326 11.5807 287.306 10.9118C287.303 10.149 286.759 9.55251 286.505 8.86595C286.257 8.35075 286.315 7.73163 286.59 7.2391C286.89 6.64154 287.31 6.03404 287.244 5.33697C287.17 4.60287 286.477 4.02078 285.74 4.00696C284.98 3.93621 284.112 4.14847 283.463 3.64378C282.762 3.18331 282.585 2.2983 281.968 1.76431C281.613 1.42877 281.102 1.23971 280.613 1.33811Z" fill="white"/>
</svg>
